<mxfile host="Electron" agent="Mozilla/5.0 (Windows NT 10.0; Win64; x64) AppleWebKit/537.36 (KHTML, like Gecko) draw.io/24.7.17 Chrome/128.0.6613.36 Electron/32.0.1 Safari/537.36" version="24.7.17">
  <diagram name="Page-1" id="9W_yv---6sQ2k7KcouaT">
    <mxGraphModel dx="1434" dy="836" grid="1" gridSize="10" guides="1" tooltips="1" connect="1" arrows="1" fold="1" page="0" pageScale="1" pageWidth="850" pageHeight="1100" math="0" shadow="0">
      <root>
        <mxCell id="0" />
        <mxCell id="1" parent="0" />
        <mxCell id="tmbyEUGGvDhyc9lhJHyJ-4" style="edgeStyle=orthogonalEdgeStyle;rounded=0;orthogonalLoop=1;jettySize=auto;html=1;entryX=0.5;entryY=0;entryDx=0;entryDy=0;" edge="1" parent="1" source="tmbyEUGGvDhyc9lhJHyJ-1" target="tmbyEUGGvDhyc9lhJHyJ-2">
          <mxGeometry relative="1" as="geometry" />
        </mxCell>
        <mxCell id="tmbyEUGGvDhyc9lhJHyJ-7" style="edgeStyle=orthogonalEdgeStyle;rounded=0;orthogonalLoop=1;jettySize=auto;html=1;exitX=0;exitY=0.5;exitDx=0;exitDy=0;" edge="1" parent="1" source="tmbyEUGGvDhyc9lhJHyJ-1" target="tmbyEUGGvDhyc9lhJHyJ-6">
          <mxGeometry relative="1" as="geometry" />
        </mxCell>
        <mxCell id="tmbyEUGGvDhyc9lhJHyJ-1" value="Board" style="rounded=1;whiteSpace=wrap;html=1;" vertex="1" parent="1">
          <mxGeometry x="365" y="160" width="120" height="60" as="geometry" />
        </mxCell>
        <mxCell id="tmbyEUGGvDhyc9lhJHyJ-5" style="edgeStyle=orthogonalEdgeStyle;rounded=0;orthogonalLoop=1;jettySize=auto;html=1;entryX=0.5;entryY=0;entryDx=0;entryDy=0;" edge="1" parent="1" source="tmbyEUGGvDhyc9lhJHyJ-2" target="tmbyEUGGvDhyc9lhJHyJ-3">
          <mxGeometry relative="1" as="geometry" />
        </mxCell>
        <mxCell id="tmbyEUGGvDhyc9lhJHyJ-2" value="Grid" style="rounded=1;whiteSpace=wrap;html=1;" vertex="1" parent="1">
          <mxGeometry x="520" y="280" width="120" height="60" as="geometry" />
        </mxCell>
        <mxCell id="tmbyEUGGvDhyc9lhJHyJ-3" value="Block&lt;br&gt;(n x n)" style="rounded=1;whiteSpace=wrap;html=1;" vertex="1" parent="1">
          <mxGeometry x="520" y="410" width="120" height="60" as="geometry" />
        </mxCell>
        <mxCell id="tmbyEUGGvDhyc9lhJHyJ-9" style="edgeStyle=orthogonalEdgeStyle;rounded=0;orthogonalLoop=1;jettySize=auto;html=1;exitX=0.5;exitY=1;exitDx=0;exitDy=0;entryX=0.5;entryY=0;entryDx=0;entryDy=0;" edge="1" parent="1" source="tmbyEUGGvDhyc9lhJHyJ-6" target="tmbyEUGGvDhyc9lhJHyJ-8">
          <mxGeometry relative="1" as="geometry" />
        </mxCell>
        <mxCell id="tmbyEUGGvDhyc9lhJHyJ-6" value="HintPane&lt;div&gt;(1 horizontal)&lt;br&gt;(1 vertical)&lt;/div&gt;" style="rounded=1;whiteSpace=wrap;html=1;" vertex="1" parent="1">
          <mxGeometry x="210" y="280" width="120" height="60" as="geometry" />
        </mxCell>
        <mxCell id="tmbyEUGGvDhyc9lhJHyJ-11" style="edgeStyle=orthogonalEdgeStyle;rounded=0;orthogonalLoop=1;jettySize=auto;html=1;exitX=0.5;exitY=1;exitDx=0;exitDy=0;entryX=0.5;entryY=0;entryDx=0;entryDy=0;" edge="1" parent="1" source="tmbyEUGGvDhyc9lhJHyJ-8" target="tmbyEUGGvDhyc9lhJHyJ-10">
          <mxGeometry relative="1" as="geometry" />
        </mxCell>
        <mxCell id="tmbyEUGGvDhyc9lhJHyJ-8" value="HintBar&lt;div&gt;(n)&lt;/div&gt;" style="rounded=1;whiteSpace=wrap;html=1;" vertex="1" parent="1">
          <mxGeometry x="210" y="410" width="120" height="60" as="geometry" />
        </mxCell>
        <mxCell id="tmbyEUGGvDhyc9lhJHyJ-10" value="Hint&lt;div&gt;(0 to ceil(n/2))&lt;/div&gt;" style="rounded=1;whiteSpace=wrap;html=1;" vertex="1" parent="1">
          <mxGeometry x="210" y="540" width="120" height="60" as="geometry" />
        </mxCell>
      </root>
    </mxGraphModel>
  </diagram>
</mxfile>
